<mxfile host="65bd71144e">
    <diagram id="ueg6NqKU8GOXhDqJm9ao" name="Page-1">
        <mxGraphModel dx="1185" dy="818" grid="1" gridSize="10" guides="1" tooltips="1" connect="1" arrows="1" fold="1" page="1" pageScale="1" pageWidth="600" pageHeight="600" background="#ffffff" math="0" shadow="0">
            <root>
                <mxCell id="0"/>
                <mxCell id="1" parent="0"/>
                <mxCell id="5" value="" style="group" parent="1" vertex="1" connectable="0">
                    <mxGeometry x="30" y="393" width="80" height="80" as="geometry"/>
                </mxCell>
                <mxCell id="3" value="1" style="ellipse;whiteSpace=wrap;html=1;aspect=fixed;fontSize=20;" parent="5" vertex="1">
                    <mxGeometry width="80" height="80" as="geometry"/>
                </mxCell>
                <mxCell id="33" style="edgeStyle=none;html=1;exitX=1;exitY=0;exitDx=0;exitDy=0;fontSize=20;entryX=0;entryY=1;entryDx=0;entryDy=0;" parent="1" source="46" target="48" edge="1">
                    <mxGeometry relative="1" as="geometry">
                        <mxPoint x="249.11999999999995" y="183.00000000000006" as="sourcePoint"/>
                        <mxPoint x="129.99999999999994" y="280.11999999999995" as="targetPoint"/>
                    </mxGeometry>
                </mxCell>
                <mxCell id="34" value="&lt;font&gt;ε&lt;/font&gt;" style="edgeLabel;html=1;align=center;verticalAlign=middle;resizable=0;points=[];fontSize=20;" parent="33" vertex="1" connectable="0">
                    <mxGeometry x="0.0351" relative="1" as="geometry">
                        <mxPoint y="-3" as="offset"/>
                    </mxGeometry>
                </mxCell>
                <mxCell id="35" style="edgeStyle=none;html=1;exitX=1;exitY=0.5;exitDx=0;exitDy=0;fontSize=16;entryX=0;entryY=0.5;entryDx=0;entryDy=0;" parent="1" source="3" target="46" edge="1">
                    <mxGeometry relative="1" as="geometry">
                        <mxPoint x="177.99999999999994" y="399.64000000000004" as="sourcePoint"/>
                        <mxPoint x="299.92000000000013" y="303.00000000000006" as="targetPoint"/>
                    </mxGeometry>
                </mxCell>
                <mxCell id="36" value="&lt;font&gt;a&lt;/font&gt;" style="edgeLabel;html=1;align=center;verticalAlign=middle;resizable=0;points=[];fontSize=20;" parent="35" vertex="1" connectable="0">
                    <mxGeometry x="0.0351" relative="1" as="geometry">
                        <mxPoint as="offset"/>
                    </mxGeometry>
                </mxCell>
                <mxCell id="45" value="" style="group" parent="1" vertex="1" connectable="0">
                    <mxGeometry x="190" y="393" width="80" height="80" as="geometry"/>
                </mxCell>
                <mxCell id="46" value="2" style="ellipse;whiteSpace=wrap;html=1;aspect=fixed;fontSize=20;" parent="45" vertex="1">
                    <mxGeometry width="80" height="80" as="geometry"/>
                </mxCell>
                <mxCell id="47" value="" style="group" parent="1" vertex="1" connectable="0">
                    <mxGeometry x="318" y="239" width="80" height="79" as="geometry"/>
                </mxCell>
                <mxCell id="48" value="3" style="ellipse;whiteSpace=wrap;html=1;aspect=fixed;fontSize=20;" parent="47" vertex="1">
                    <mxGeometry width="80" height="80" as="geometry"/>
                </mxCell>
                <mxCell id="49" value="" style="group" parent="1" vertex="1" connectable="0">
                    <mxGeometry x="428" y="139" width="80" height="79" as="geometry"/>
                </mxCell>
                <mxCell id="50" value="4" style="ellipse;whiteSpace=wrap;html=1;aspect=fixed;fontSize=20;" parent="49" vertex="1">
                    <mxGeometry width="80" height="80" as="geometry"/>
                </mxCell>
                <mxCell id="51" value="" style="group" parent="1" vertex="1" connectable="0">
                    <mxGeometry x="428" y="329" width="80" height="79" as="geometry"/>
                </mxCell>
                <mxCell id="52" value="5" style="ellipse;whiteSpace=wrap;html=1;aspect=fixed;fontSize=20;" parent="51" vertex="1">
                    <mxGeometry width="80" height="80" as="geometry"/>
                </mxCell>
                <mxCell id="53" style="edgeStyle=none;html=1;exitX=1;exitY=0;exitDx=0;exitDy=0;fontSize=16;entryX=0;entryY=1;entryDx=0;entryDy=0;" parent="1" source="48" target="50" edge="1">
                    <mxGeometry relative="1" as="geometry">
                        <mxPoint x="276" y="411" as="sourcePoint"/>
                        <mxPoint x="340" y="337" as="targetPoint"/>
                    </mxGeometry>
                </mxCell>
                <mxCell id="54" value="&lt;font&gt;ε&lt;/font&gt;" style="edgeLabel;html=1;align=center;verticalAlign=middle;resizable=0;points=[];fontSize=20;" parent="53" vertex="1" connectable="0">
                    <mxGeometry x="0.0351" relative="1" as="geometry">
                        <mxPoint y="-3" as="offset"/>
                    </mxGeometry>
                </mxCell>
                <mxCell id="55" style="edgeStyle=none;html=1;exitX=1;exitY=1;exitDx=0;exitDy=0;fontSize=16;entryX=0;entryY=0;entryDx=0;entryDy=0;" parent="1" source="48" target="52" edge="1">
                    <mxGeometry relative="1" as="geometry">
                        <mxPoint x="396" y="281" as="sourcePoint"/>
                        <mxPoint x="470" y="217" as="targetPoint"/>
                    </mxGeometry>
                </mxCell>
                <mxCell id="56" value="&lt;font&gt;ε&lt;/font&gt;" style="edgeLabel;html=1;align=center;verticalAlign=middle;resizable=0;points=[];fontSize=20;" parent="55" vertex="1" connectable="0">
                    <mxGeometry x="0.0351" relative="1" as="geometry">
                        <mxPoint y="-3" as="offset"/>
                    </mxGeometry>
                </mxCell>
                <mxCell id="57" value="" style="group" parent="1" vertex="1" connectable="0">
                    <mxGeometry x="578" y="139" width="80" height="79" as="geometry"/>
                </mxCell>
                <mxCell id="58" value="6" style="ellipse;whiteSpace=wrap;html=1;aspect=fixed;fontSize=20;" parent="57" vertex="1">
                    <mxGeometry width="80" height="80" as="geometry"/>
                </mxCell>
                <mxCell id="59" value="" style="group" parent="1" vertex="1" connectable="0">
                    <mxGeometry x="578" y="329" width="80" height="79" as="geometry"/>
                </mxCell>
                <mxCell id="60" value="7" style="ellipse;whiteSpace=wrap;html=1;aspect=fixed;fontSize=20;" parent="59" vertex="1">
                    <mxGeometry width="80" height="80" as="geometry"/>
                </mxCell>
                <mxCell id="61" style="edgeStyle=none;html=1;exitX=1;exitY=0.5;exitDx=0;exitDy=0;fontSize=16;entryX=0;entryY=0.5;entryDx=0;entryDy=0;" parent="1" source="52" target="60" edge="1">
                    <mxGeometry relative="1" as="geometry">
                        <mxPoint x="518" y="409" as="sourcePoint"/>
                        <mxPoint x="598" y="409" as="targetPoint"/>
                    </mxGeometry>
                </mxCell>
                <mxCell id="62" value="&lt;font&gt;b&lt;/font&gt;" style="edgeLabel;html=1;align=center;verticalAlign=middle;resizable=0;points=[];fontSize=20;" parent="61" vertex="1" connectable="0">
                    <mxGeometry x="0.0351" relative="1" as="geometry">
                        <mxPoint as="offset"/>
                    </mxGeometry>
                </mxCell>
                <mxCell id="63" style="edgeStyle=none;html=1;exitX=1;exitY=0.5;exitDx=0;exitDy=0;fontSize=16;entryX=0;entryY=0.5;entryDx=0;entryDy=0;" parent="1" source="50" target="58" edge="1">
                    <mxGeometry relative="1" as="geometry">
                        <mxPoint x="518" y="249" as="sourcePoint"/>
                        <mxPoint x="588" y="249" as="targetPoint"/>
                    </mxGeometry>
                </mxCell>
                <mxCell id="64" value="&lt;font&gt;a&lt;/font&gt;" style="edgeLabel;html=1;align=center;verticalAlign=middle;resizable=0;points=[];fontSize=20;" parent="63" vertex="1" connectable="0">
                    <mxGeometry x="0.0351" relative="1" as="geometry">
                        <mxPoint as="offset"/>
                    </mxGeometry>
                </mxCell>
                <mxCell id="65" value="" style="group" parent="1" vertex="1" connectable="0">
                    <mxGeometry x="698" y="239" width="80" height="79" as="geometry"/>
                </mxCell>
                <mxCell id="66" value="8" style="ellipse;whiteSpace=wrap;html=1;aspect=fixed;fontSize=20;" parent="65" vertex="1">
                    <mxGeometry width="80" height="80" as="geometry"/>
                </mxCell>
                <mxCell id="67" style="edgeStyle=none;html=1;exitX=1;exitY=1;exitDx=0;exitDy=0;fontSize=16;entryX=0;entryY=0;entryDx=0;entryDy=0;" parent="1" source="58" target="66" edge="1">
                    <mxGeometry relative="1" as="geometry">
                        <mxPoint x="396" y="337" as="sourcePoint"/>
                        <mxPoint x="450" y="371" as="targetPoint"/>
                    </mxGeometry>
                </mxCell>
                <mxCell id="68" value="&lt;font&gt;ε&lt;/font&gt;" style="edgeLabel;html=1;align=center;verticalAlign=middle;resizable=0;points=[];fontSize=20;" parent="67" vertex="1" connectable="0">
                    <mxGeometry x="0.0351" relative="1" as="geometry">
                        <mxPoint y="-3" as="offset"/>
                    </mxGeometry>
                </mxCell>
                <mxCell id="69" style="edgeStyle=none;html=1;exitX=1;exitY=0;exitDx=0;exitDy=0;fontSize=16;entryX=0;entryY=1;entryDx=0;entryDy=0;" parent="1" source="60" target="66" edge="1">
                    <mxGeometry relative="1" as="geometry">
                        <mxPoint x="656" y="237" as="sourcePoint"/>
                        <mxPoint x="720" y="281" as="targetPoint"/>
                    </mxGeometry>
                </mxCell>
                <mxCell id="70" value="&lt;font&gt;ε&lt;/font&gt;" style="edgeLabel;html=1;align=center;verticalAlign=middle;resizable=0;points=[];fontSize=20;" parent="69" vertex="1" connectable="0">
                    <mxGeometry x="0.0351" relative="1" as="geometry">
                        <mxPoint y="-3" as="offset"/>
                    </mxGeometry>
                </mxCell>
                <mxCell id="71" value="" style="group" parent="1" vertex="1" connectable="0">
                    <mxGeometry x="840" y="393" width="80" height="80" as="geometry"/>
                </mxCell>
                <mxCell id="72" value="9" style="ellipse;whiteSpace=wrap;html=1;aspect=fixed;fontSize=20;" parent="71" vertex="1">
                    <mxGeometry width="80" height="80" as="geometry"/>
                </mxCell>
                <mxCell id="73" style="edgeStyle=none;html=1;exitX=1;exitY=1;exitDx=0;exitDy=0;fontSize=16;entryX=0;entryY=0;entryDx=0;entryDy=0;" parent="1" source="66" target="72" edge="1">
                    <mxGeometry relative="1" as="geometry">
                        <mxPoint x="268" y="415" as="sourcePoint"/>
                        <mxPoint x="340" y="337" as="targetPoint"/>
                    </mxGeometry>
                </mxCell>
                <mxCell id="74" value="&lt;font&gt;ε&lt;/font&gt;" style="edgeLabel;html=1;align=center;verticalAlign=middle;resizable=0;points=[];fontSize=20;" parent="73" vertex="1" connectable="0">
                    <mxGeometry x="0.0351" relative="1" as="geometry">
                        <mxPoint y="-3" as="offset"/>
                    </mxGeometry>
                </mxCell>
                <mxCell id="75" style="edgeStyle=none;html=1;exitX=1;exitY=0.5;exitDx=0;exitDy=0;fontSize=16;entryX=0;entryY=0.5;entryDx=0;entryDy=0;" parent="1" source="46" target="72" edge="1">
                    <mxGeometry relative="1" as="geometry">
                        <mxPoint x="268" y="415" as="sourcePoint"/>
                        <mxPoint x="340" y="337" as="targetPoint"/>
                    </mxGeometry>
                </mxCell>
                <mxCell id="76" value="&lt;font&gt;ε&lt;/font&gt;" style="edgeLabel;html=1;align=center;verticalAlign=middle;resizable=0;points=[];fontSize=20;" parent="75" vertex="1" connectable="0">
                    <mxGeometry x="0.0351" relative="1" as="geometry">
                        <mxPoint y="-3" as="offset"/>
                    </mxGeometry>
                </mxCell>
                <mxCell id="77" value="" style="group" parent="1" vertex="1" connectable="0">
                    <mxGeometry x="1010" y="393" width="80" height="80" as="geometry"/>
                </mxCell>
                <mxCell id="78" value="10" style="ellipse;whiteSpace=wrap;html=1;aspect=fixed;fontSize=20;" parent="77" vertex="1">
                    <mxGeometry width="80" height="80" as="geometry"/>
                </mxCell>
                <mxCell id="79" style="edgeStyle=none;html=1;exitX=1;exitY=0.5;exitDx=0;exitDy=0;fontSize=16;entryX=0;entryY=0.5;entryDx=0;entryDy=0;" parent="1" source="72" target="78" edge="1">
                    <mxGeometry relative="1" as="geometry">
                        <mxPoint x="930" y="432.66999999999996" as="sourcePoint"/>
                        <mxPoint x="1000" y="432.66999999999996" as="targetPoint"/>
                    </mxGeometry>
                </mxCell>
                <mxCell id="80" value="&lt;font&gt;b&lt;/font&gt;" style="edgeLabel;html=1;align=center;verticalAlign=middle;resizable=0;points=[];fontSize=20;" parent="79" vertex="1" connectable="0">
                    <mxGeometry x="0.0351" relative="1" as="geometry">
                        <mxPoint as="offset"/>
                    </mxGeometry>
                </mxCell>
                <mxCell id="94" style="edgeStyle=none;html=1;exitX=1;exitY=0;exitDx=0;exitDy=0;fontSize=20;entryX=0;entryY=1;entryDx=0;entryDy=0;" parent="1" source="78" target="99" edge="1">
                    <mxGeometry relative="1" as="geometry">
                        <mxPoint x="1178.2842712474621" y="404.71572875253787" as="sourcePoint"/>
                        <mxPoint x="1050" y="280.11999999999995" as="targetPoint"/>
                    </mxGeometry>
                </mxCell>
                <mxCell id="95" value="&lt;font&gt;ε&lt;/font&gt;" style="edgeLabel;html=1;align=center;verticalAlign=middle;resizable=0;points=[];fontSize=20;" parent="94" vertex="1" connectable="0">
                    <mxGeometry x="0.0351" relative="1" as="geometry">
                        <mxPoint y="-3" as="offset"/>
                    </mxGeometry>
                </mxCell>
                <mxCell id="98" value="" style="group" parent="1" vertex="1" connectable="0">
                    <mxGeometry x="1168" y="239" width="80" height="79" as="geometry"/>
                </mxCell>
                <mxCell id="99" value="11" style="ellipse;whiteSpace=wrap;html=1;aspect=fixed;fontSize=20;" parent="98" vertex="1">
                    <mxGeometry width="80" height="80" as="geometry"/>
                </mxCell>
                <mxCell id="100" value="" style="group" parent="1" vertex="1" connectable="0">
                    <mxGeometry x="1278" y="139" width="80" height="79" as="geometry"/>
                </mxCell>
                <mxCell id="101" value="12" style="ellipse;whiteSpace=wrap;html=1;aspect=fixed;fontSize=20;" parent="100" vertex="1">
                    <mxGeometry width="80" height="80" as="geometry"/>
                </mxCell>
                <mxCell id="102" value="" style="group" parent="1" vertex="1" connectable="0">
                    <mxGeometry x="1278" y="329" width="80" height="79" as="geometry"/>
                </mxCell>
                <mxCell id="103" value="13" style="ellipse;whiteSpace=wrap;html=1;aspect=fixed;fontSize=20;" parent="102" vertex="1">
                    <mxGeometry width="80" height="80" as="geometry"/>
                </mxCell>
                <mxCell id="104" style="edgeStyle=none;html=1;exitX=1;exitY=0;exitDx=0;exitDy=0;fontSize=20;entryX=0;entryY=1;entryDx=0;entryDy=0;" parent="1" source="99" target="101" edge="1">
                    <mxGeometry relative="1" as="geometry">
                        <mxPoint x="1126" y="411" as="sourcePoint"/>
                        <mxPoint x="1190" y="337" as="targetPoint"/>
                    </mxGeometry>
                </mxCell>
                <mxCell id="105" value="&lt;font&gt;ε&lt;/font&gt;" style="edgeLabel;html=1;align=center;verticalAlign=middle;resizable=0;points=[];fontSize=20;" parent="104" vertex="1" connectable="0">
                    <mxGeometry x="0.0351" relative="1" as="geometry">
                        <mxPoint y="-3" as="offset"/>
                    </mxGeometry>
                </mxCell>
                <mxCell id="106" style="edgeStyle=none;html=1;exitX=1;exitY=1;exitDx=0;exitDy=0;fontSize=20;entryX=0;entryY=0;entryDx=0;entryDy=0;" parent="1" source="99" target="103" edge="1">
                    <mxGeometry relative="1" as="geometry">
                        <mxPoint x="1246" y="281" as="sourcePoint"/>
                        <mxPoint x="1320" y="217" as="targetPoint"/>
                    </mxGeometry>
                </mxCell>
                <mxCell id="107" value="&lt;font&gt;ε&lt;/font&gt;" style="edgeLabel;html=1;align=center;verticalAlign=middle;resizable=0;points=[];fontSize=20;" parent="106" vertex="1" connectable="0">
                    <mxGeometry x="0.0351" relative="1" as="geometry">
                        <mxPoint y="-3" as="offset"/>
                    </mxGeometry>
                </mxCell>
                <mxCell id="108" value="" style="group" parent="1" vertex="1" connectable="0">
                    <mxGeometry x="1428" y="139" width="80" height="79" as="geometry"/>
                </mxCell>
                <mxCell id="109" value="14" style="ellipse;whiteSpace=wrap;html=1;aspect=fixed;fontSize=20;" parent="108" vertex="1">
                    <mxGeometry width="80" height="80" as="geometry"/>
                </mxCell>
                <mxCell id="110" value="" style="group" parent="1" vertex="1" connectable="0">
                    <mxGeometry x="1428" y="329" width="80" height="79" as="geometry"/>
                </mxCell>
                <mxCell id="111" value="15" style="ellipse;whiteSpace=wrap;html=1;aspect=fixed;fontSize=20;" parent="110" vertex="1">
                    <mxGeometry width="80" height="80" as="geometry"/>
                </mxCell>
                <mxCell id="112" style="edgeStyle=none;html=1;exitX=1;exitY=0.5;exitDx=0;exitDy=0;fontSize=16;entryX=0;entryY=0.5;entryDx=0;entryDy=0;" parent="1" source="103" target="111" edge="1">
                    <mxGeometry relative="1" as="geometry">
                        <mxPoint x="1368" y="409" as="sourcePoint"/>
                        <mxPoint x="1448" y="409" as="targetPoint"/>
                    </mxGeometry>
                </mxCell>
                <mxCell id="113" value="&lt;font&gt;c&lt;/font&gt;" style="edgeLabel;html=1;align=center;verticalAlign=middle;resizable=0;points=[];fontSize=20;" parent="112" vertex="1" connectable="0">
                    <mxGeometry x="0.0351" relative="1" as="geometry">
                        <mxPoint as="offset"/>
                    </mxGeometry>
                </mxCell>
                <mxCell id="114" style="edgeStyle=none;html=1;exitX=1;exitY=0.5;exitDx=0;exitDy=0;fontSize=16;entryX=0;entryY=0.5;entryDx=0;entryDy=0;" parent="1" source="101" target="109" edge="1">
                    <mxGeometry relative="1" as="geometry">
                        <mxPoint x="1368" y="249" as="sourcePoint"/>
                        <mxPoint x="1438" y="249" as="targetPoint"/>
                    </mxGeometry>
                </mxCell>
                <mxCell id="115" value="&lt;span&gt;b&lt;/span&gt;" style="edgeLabel;html=1;align=center;verticalAlign=middle;resizable=0;points=[];fontSize=20;" parent="114" vertex="1" connectable="0">
                    <mxGeometry x="0.0351" relative="1" as="geometry">
                        <mxPoint as="offset"/>
                    </mxGeometry>
                </mxCell>
                <mxCell id="116" value="" style="group" parent="1" vertex="1" connectable="0">
                    <mxGeometry x="1548" y="239" width="80" height="79" as="geometry"/>
                </mxCell>
                <mxCell id="117" value="16" style="ellipse;whiteSpace=wrap;html=1;aspect=fixed;fontSize=20;" parent="116" vertex="1">
                    <mxGeometry width="80" height="80" as="geometry"/>
                </mxCell>
                <mxCell id="118" style="edgeStyle=none;html=1;exitX=1;exitY=1;exitDx=0;exitDy=0;fontSize=16;entryX=0;entryY=0;entryDx=0;entryDy=0;" parent="1" source="109" target="117" edge="1">
                    <mxGeometry relative="1" as="geometry">
                        <mxPoint x="1246" y="337" as="sourcePoint"/>
                        <mxPoint x="1300" y="371" as="targetPoint"/>
                    </mxGeometry>
                </mxCell>
                <mxCell id="119" value="&lt;font&gt;ε&lt;/font&gt;" style="edgeLabel;html=1;align=center;verticalAlign=middle;resizable=0;points=[];fontSize=20;" parent="118" vertex="1" connectable="0">
                    <mxGeometry x="0.0351" relative="1" as="geometry">
                        <mxPoint y="-3" as="offset"/>
                    </mxGeometry>
                </mxCell>
                <mxCell id="120" style="edgeStyle=none;html=1;exitX=1;exitY=0;exitDx=0;exitDy=0;fontSize=16;entryX=0;entryY=1;entryDx=0;entryDy=0;" parent="1" source="111" target="117" edge="1">
                    <mxGeometry relative="1" as="geometry">
                        <mxPoint x="1506" y="237" as="sourcePoint"/>
                        <mxPoint x="1570" y="281" as="targetPoint"/>
                    </mxGeometry>
                </mxCell>
                <mxCell id="121" value="&lt;font&gt;ε&lt;/font&gt;" style="edgeLabel;html=1;align=center;verticalAlign=middle;resizable=0;points=[];fontSize=20;" parent="120" vertex="1" connectable="0">
                    <mxGeometry x="0.0351" relative="1" as="geometry">
                        <mxPoint y="-3" as="offset"/>
                    </mxGeometry>
                </mxCell>
                <mxCell id="122" value="" style="group" parent="1" vertex="1" connectable="0">
                    <mxGeometry x="1690" y="393" width="80" height="80" as="geometry"/>
                </mxCell>
                <mxCell id="123" value="17" style="ellipse;whiteSpace=wrap;html=1;aspect=fixed;fontSize=20;" parent="122" vertex="1">
                    <mxGeometry width="80" height="80" as="geometry"/>
                </mxCell>
                <mxCell id="124" style="edgeStyle=none;html=1;exitX=1;exitY=1;exitDx=0;exitDy=0;fontSize=16;entryX=0;entryY=0;entryDx=0;entryDy=0;" parent="1" source="117" target="123" edge="1">
                    <mxGeometry relative="1" as="geometry">
                        <mxPoint x="1118" y="415" as="sourcePoint"/>
                        <mxPoint x="1190" y="337" as="targetPoint"/>
                    </mxGeometry>
                </mxCell>
                <mxCell id="125" value="&lt;font&gt;ε&lt;/font&gt;" style="edgeLabel;html=1;align=center;verticalAlign=middle;resizable=0;points=[];fontSize=20;" parent="124" vertex="1" connectable="0">
                    <mxGeometry x="0.0351" relative="1" as="geometry">
                        <mxPoint y="-3" as="offset"/>
                    </mxGeometry>
                </mxCell>
                <mxCell id="126" style="edgeStyle=none;html=1;exitX=1;exitY=0.5;exitDx=0;exitDy=0;fontSize=16;entryX=0;entryY=0.5;entryDx=0;entryDy=0;" parent="1" source="78" target="123" edge="1">
                    <mxGeometry relative="1" as="geometry">
                        <mxPoint x="1190" y="433" as="sourcePoint"/>
                        <mxPoint x="1260" y="337" as="targetPoint"/>
                    </mxGeometry>
                </mxCell>
                <mxCell id="127" value="&lt;font&gt;ε&lt;/font&gt;" style="edgeLabel;html=1;align=center;verticalAlign=middle;resizable=0;points=[];fontSize=20;" parent="126" vertex="1" connectable="0">
                    <mxGeometry x="0.0351" relative="1" as="geometry">
                        <mxPoint y="-3" as="offset"/>
                    </mxGeometry>
                </mxCell>
                <mxCell id="129" value="" style="group" parent="1" vertex="1" connectable="0">
                    <mxGeometry x="1860" y="393" width="80" height="80" as="geometry"/>
                </mxCell>
                <mxCell id="130" value="18" style="ellipse;whiteSpace=wrap;html=1;aspect=fixed;fontSize=20;" parent="129" vertex="1">
                    <mxGeometry width="80" height="80" as="geometry"/>
                </mxCell>
                <mxCell id="142" value="" style="ellipse;whiteSpace=wrap;html=1;aspect=fixed;fillColor=none;container=1;" parent="129" vertex="1">
                    <mxGeometry x="5" y="5" width="70" height="70" as="geometry"/>
                </mxCell>
                <mxCell id="131" style="edgeStyle=none;html=1;fontSize=16;entryX=0;entryY=0.5;entryDx=0;entryDy=0;exitX=1;exitY=0.5;exitDx=0;exitDy=0;" parent="1" source="123" target="130" edge="1">
                    <mxGeometry relative="1" as="geometry">
                        <mxPoint x="1800" y="453" as="sourcePoint"/>
                        <mxPoint x="1850" y="432.66999999999996" as="targetPoint"/>
                    </mxGeometry>
                </mxCell>
                <mxCell id="132" value="&lt;font&gt;c&lt;/font&gt;" style="edgeLabel;html=1;align=center;verticalAlign=middle;resizable=0;points=[];fontSize=20;" parent="131" vertex="1" connectable="0">
                    <mxGeometry x="0.0351" relative="1" as="geometry">
                        <mxPoint as="offset"/>
                    </mxGeometry>
                </mxCell>
                <mxCell id="133" value="" style="curved=1;endArrow=classic;html=1;exitX=1;exitY=0;exitDx=0;exitDy=0;entryX=0;entryY=0;entryDx=0;entryDy=0;" parent="1" source="66" target="48" edge="1">
                    <mxGeometry width="50" height="50" relative="1" as="geometry">
                        <mxPoint x="730" y="183" as="sourcePoint"/>
                        <mxPoint x="780" y="133" as="targetPoint"/>
                        <Array as="points">
                            <mxPoint x="850" y="113"/>
                            <mxPoint x="540" y="-7"/>
                            <mxPoint x="310" y="123"/>
                        </Array>
                    </mxGeometry>
                </mxCell>
                <mxCell id="135" value="&lt;span style=&quot;font-family: monospace; font-size: 0px; text-align: start; background-color: rgb(251, 251, 251);&quot;&gt;%3CmxGraphModel%3E%3Croot%3E%3CmxCell%20id%3D%220%22%2F%3E%3CmxCell%20id%3D%221%22%20parent%3D%220%22%2F%3E%3CmxCell%20id%3D%222%22%20value%3D%22%26lt%3Bfont%20style%3D%26quot%3Bfont-size%3A%2016px%3B%26quot%3B%26gt%3B%CE%B5%26lt%3B%2Ffont%26gt%3B%22%20style%3D%22edgeLabel%3Bhtml%3D1%3Balign%3Dcenter%3BverticalAlign%3Dmiddle%3Bresizable%3D0%3Bpoints%3D%5B%5D%3B%22%20vertex%3D%221%22%20connectable%3D%220%22%20parent%3D%221%22%3E%3CmxGeometry%20x%3D%22413.7023448006835%22%20y%3D%22192.4291030080567%22%20as%3D%22geometry%22%2F%3E%3C%2FmxCell%3E%3C%2Froot%3E%3C%2FmxGraphModel%3E&lt;/span&gt;" style="edgeLabel;html=1;align=center;verticalAlign=middle;resizable=0;points=[];" parent="133" vertex="1" connectable="0">
                    <mxGeometry x="0.0589" y="24" relative="1" as="geometry">
                        <mxPoint as="offset"/>
                    </mxGeometry>
                </mxCell>
                <mxCell id="138" value="&lt;span style=&quot;color: rgb(63, 63, 63);&quot;&gt;ε&lt;/span&gt;" style="edgeLabel;html=1;align=center;verticalAlign=middle;resizable=0;points=[];fontSize=20;" parent="133" vertex="1" connectable="0">
                    <mxGeometry x="0.06" y="23" relative="1" as="geometry">
                        <mxPoint as="offset"/>
                    </mxGeometry>
                </mxCell>
                <mxCell id="139" value="" style="curved=1;endArrow=classic;html=1;exitX=1;exitY=0;exitDx=0;exitDy=0;entryX=0;entryY=0;entryDx=0;entryDy=0;" parent="1" source="117" target="99" edge="1">
                    <mxGeometry width="50" height="50" relative="1" as="geometry">
                        <mxPoint x="1616" y="251" as="sourcePoint"/>
                        <mxPoint x="1180" y="251" as="targetPoint"/>
                        <Array as="points">
                            <mxPoint x="1700" y="113"/>
                            <mxPoint x="1390" y="-7"/>
                            <mxPoint x="1160" y="123"/>
                        </Array>
                    </mxGeometry>
                </mxCell>
                <mxCell id="140" value="&lt;span style=&quot;font-family: monospace; font-size: 0px; text-align: start; background-color: rgb(251, 251, 251);&quot;&gt;%3CmxGraphModel%3E%3Croot%3E%3CmxCell%20id%3D%220%22%2F%3E%3CmxCell%20id%3D%221%22%20parent%3D%220%22%2F%3E%3CmxCell%20id%3D%222%22%20value%3D%22%26lt%3Bfont%20style%3D%26quot%3Bfont-size%3A%2016px%3B%26quot%3B%26gt%3B%CE%B5%26lt%3B%2Ffont%26gt%3B%22%20style%3D%22edgeLabel%3Bhtml%3D1%3Balign%3Dcenter%3BverticalAlign%3Dmiddle%3Bresizable%3D0%3Bpoints%3D%5B%5D%3B%22%20vertex%3D%221%22%20connectable%3D%220%22%20parent%3D%221%22%3E%3CmxGeometry%20x%3D%22413.7023448006835%22%20y%3D%22192.4291030080567%22%20as%3D%22geometry%22%2F%3E%3C%2FmxCell%3E%3C%2Froot%3E%3C%2FmxGraphModel%3E&lt;/span&gt;" style="edgeLabel;html=1;align=center;verticalAlign=middle;resizable=0;points=[];" parent="139" vertex="1" connectable="0">
                    <mxGeometry x="0.0589" y="24" relative="1" as="geometry">
                        <mxPoint as="offset"/>
                    </mxGeometry>
                </mxCell>
                <mxCell id="141" value="&lt;span style=&quot;color: rgb(63, 63, 63);&quot;&gt;ε&lt;/span&gt;" style="edgeLabel;html=1;align=center;verticalAlign=middle;resizable=0;points=[];fontSize=20;" parent="139" vertex="1" connectable="0">
                    <mxGeometry x="0.06" y="23" relative="1" as="geometry">
                        <mxPoint as="offset"/>
                    </mxGeometry>
                </mxCell>
            </root>
        </mxGraphModel>
    </diagram>
</mxfile>